<svg xmlns="http://www.w3.org/2000/svg" version="1.1" xmlns:xlink="http://www.w3.org/1999/xlink" xmlns:svgjs="http://svgjs.dev/svgjs" width="1000" height="1125" viewBox="0 0 1000 1125"><g transform="matrix(1,0,0,1,1.7053025658242404e-13,0)"><svg viewBox="0 0 320 360" data-background-color="#dedede" preserveAspectRatio="xMidYMid meet" height="1125" width="1000" xmlns="http://www.w3.org/2000/svg" xmlns:xlink="http://www.w3.org/1999/xlink"><g id="tight-bounds" transform="matrix(1,0,0,1,0,0)"><svg viewBox="0 0 320 360" height="360" width="320"><g><svg></svg></g><g><svg viewBox="0 0 320 360" height="360" width="320"><g><path d="M20.961 227.22l3.726 4.658-1.863-6.056c-0.466-2.795-3.726 0.466-1.863 1.398M25.153 224.425c1.397 2.329 2.795 4.658 2.795 6.987 0 3.261 2.795 4.658 5.123 5.589-3.261-3.726-5.124-13.974-7.918-12.576M204.017 26.929c7.918 0 15.371-0.932 23.756 0.931 20.495 5.124 37.729 15.371 49.374 29.811l32.606 52.169c1.397 13.042 4.192 27.482 3.726 43.319 3.261 0 2.795-4.658 6.521-5.59-3.726 9.316-5.59 20.961-6.521 34.469-2.329-7.453 0-18.632 0.466-24.687-3.261 5.124-5.124 1.397-5.124-0.932 0.466-3.726-1.397-3.261-2.795-4.658-5.124-4.658-8.384-9.782-12.11-17.7 2.329-6.055 2.795-14.905-4.658-19.563-2.329-1.397-5.124-3.726-6.521-7.453-1.863-5.124-5.124-11.179-4.193-19.097 0.466-2.329-6.987 5.124-11.179 1.863-18.166-12.576-36.332-27.016-58.224-39.127-11.645 0-20.029-4.192-24.221-9.316-3.726-4.658-0.932-10.713 4.658-11.179 3.261 0 6.987-0.932 9.782 0.932 0.466-1.863 2.329-4.192 4.657-4.192M157.904 16.215l0.932 0.466c4.658 0.932 6.987 7.453 12.11 5.124 0 3.261 0.466 6.521-0.466 8.85-1.397 3.726-5.59 3.726-8.85 3.726-31.208-1.863-49.374 11.179-68.471 22.358-5.124 3.261-10.713 5.59-14.906 9.782-20.029 18.632-41.921 35.866-47.045 70.335l-4.192 38.195c-0.466 4.192-5.124 8.384-4.192 13.508l3.26 22.824c-3.261-3.261-5.124 0.932-4.192 2.795 0.466 1.397 2.329 6.055 5.124 1.863 3.726 6.987 7.453 20.495 12.576 26.55 15.837 18.632 36.332 35.4 53.101 52.169 4.192-0.932 7.453-0.932 8.384-3.727 1.397 2.795-1.397 5.59-3.726 6.056 7.453 4.658 15.837 8.85 27.016 9.781 14.44 0.932 27.948 3.261 40.524 6.522 6.521-1.863 13.042-2.795 20.029-3.261 2.329 0 3.726-3.726 6.521-4.658l0.466-4.658c2.795 4.192 2.329-1.397 0.466-4.192 3.261 2.795 4.192 5.124 5.589 6.987 0-1.397 3.726-6.521 3.727-0.466l0.931-6.055c1.397-0.932 1.863 5.124 3.261 0.931 1.397-4.192 4.192-0.932 6.987-2.329-0.932 1.863-0.466 5.59 2.794 3.261l3.727-3.261c2.329 5.59 6.055 3.261 7.918 2.329 20.495-13.042 40.99-28.413 60.553-43.784l-0.466 6.055 2.329-7.453c2.329 2.329 4.192 0.466 5.124-0.931 2.795-4.658 6.521-9.316 12.577-13.508-7.453 20.029-16.303 35.866-27.482 48.908l-4.658 5.59c0 3.261-0.932 7.453-4.658 7.918-1.863 0.466-5.59-0.932-8.384 1.863-1.397 1.863 3.261 5.59-0.466 2.795-3.261-2.329-6.521 0-10.248 0.932-2.795 0.932 1.863 3.726 2.795 5.589 0.932 1.863 1.863 3.726 1.398 6.056l-5.124-5.59c-6.055 3.261-9.782 9.316-14.906 13.974-2.329 1.863-1.397 5.124-1.397 7.918-3.261 0-6.987-0.932-8.85 0.932-1.397 1.863-0.932 4.658-0.932 7.453-4.658-0.466-5.124-7.453-9.315-6.056-4.192 0.932-8.85 1.397-12.577 3.727 2.795 5.59-4.658 2.329-3.726 3.26-6.987-4.192-13.042-7.453-20.495-4.658-15.837-5.124-35.4-2.795-49.84-0.931 0-2.329 0.466-4.658-0.466-5.124-0.932 2.329-3.726 1.397-3.26 1.397-8.85-6.055-17.7-9.782-27.016-14.905-8.384 0.932-16.303-3.261-18.632-5.59-6.521-6.055-13.974-2.795-20.029-4.192-13.042-3.261-17.7-16.769-19.098-26.084-0.932-4.658-4.658-6.521-6.055-6.056-6.055-19.563-15.371-37.263-22.824-55.429-1.863-4.658-1.397-9.316-1.397-14.44 2.329 0.932 4.658 0.466 4.192-2.794-2.329-15.371-7.918-27.016-13.974-38.195 3.261-15.837 3.726-34.469 11.179-48.443 6.521-12.576 18.632-19.098 27.016-29.811 2.795-3.726 2.795-8.85 5.59-12.11 9.316-9.316 18.632-19.098 28.879-27.482 4.658-3.726 10.247 0 17.234-1.397 2.329-8.384 11.645-15.837 20.495-13.508 3.726 0.932 11.179-8.85 13.508-9.782 3.726-1.397 1.863 3.726 1.863 6.987 8.85-6.987 20.961-10.713 32.14-14.906" fill="#d32727" fill-rule="nonzero" stroke="none" stroke-width="1" stroke-linecap="butt" stroke-linejoin="miter" stroke-miterlimit="10" stroke-dasharray="" stroke-dashoffset="0" font-family="none" font-weight="none" font-size="none" text-anchor="none" style="mix-blend-mode: normal" data-fill-palette-color="tertiary"></path></g><g transform="matrix(1,0,0,1,64,169.10638297872342)"><svg viewBox="0 0 192 21.78723404255319" height="21.78723404255319" width="192"><g><svg viewBox="0 0 192 21.78723404255319" height="21.78723404255319" width="192"><g><svg viewBox="0 0 192 21.78723404255319" height="21.78723404255319" width="192"><g><svg viewBox="0 0 192 21.78723404255319" height="21.78723404255319" width="192"><g id="textblocktransform"><svg viewBox="0 0 192 21.78723404255319" height="21.78723404255319" width="192" id="textblock"><g><svg viewBox="0 0 192 21.78723404255319" height="21.78723404255319" width="192"><g transform="matrix(1,0,0,1,0,0)"><svg width="192" viewBox="5 -28.75 253.79000000000002 28.8" height="21.78723404255319" data-palette-color="#e31111"><path d="M5 0L5-28.75 11.3-28.75 11.3-17.2 14.1-17.2 14.1-11.5 11.3-11.5 11.3 0 5 0ZM39.45-2.85L21-14.35 39.45-25.9 33.55-28.75 15.95-17.2 15.95-11.5 33.55 0 39.45-2.85ZM74.15-18.55L74.15-12.85 68.25-9.4 60.25-9.4 60.25-13.25 67.8-13.25 67.8-17.35 60.25-17.35 60.25-22.05 68.25-22.05 74.15-18.55ZM67.6-6.95L74.15-6.95 74.15-3.45 68.25 0 60.25 0 60.25-5.3 67.6-5.3 67.6-6.95ZM43.95-18.55L43.95-3.45 49.85 0 57.8 0 57.8-5.3 50.25-5.3 50.25-9.4 57.8-9.4 57.8-13.25 50.25-13.25 50.25-17.35 57.8-17.35 57.8-22.05 49.85-22.05 43.95-18.55ZM83.15-0.05L83.15-22 89.5-22 89.5-19.85 96.9-22 96.9-17.3 89.5-17.3 89.5-0.05 83.15-0.05ZM113.1-0.05L113.1-18.55 107.2-22 99.3-22 99.3-17.3 106.85-17.3 106.85-0.05 113.1-0.05ZM122.59-0.05L122.59-22 128.94-22 128.94-19.85 136.34-22 136.34-17.3 128.94-17.3 128.94-0.05 122.59-0.05ZM152.54-0.05L152.54-18.55 146.64-22 138.74-22 138.74-17.3 146.29-17.3 146.29-0.05 152.54-0.05ZM191.24-18.55L191.24-12.85 185.34-9.4 177.34-9.4 177.34-13.25 184.89-13.25 184.89-17.35 177.34-17.35 177.34-22.05 185.34-22.05 191.24-18.55ZM184.69-6.95L191.24-6.95 191.24-3.45 185.34 0 177.34 0 177.34-5.3 184.69-5.3 184.69-6.95ZM161.04-18.55L161.04-3.45 166.94 0 174.89 0 174.89-5.3 167.34-5.3 167.34-9.4 174.89-9.4 174.89-13.25 167.34-13.25 167.34-17.35 174.89-17.35 174.89-22.05 166.94-22.05 161.04-18.55ZM208.74-17.2L208.74-21.85 216.24-21.85 216.24-17.2 208.74-17.2ZM216.24-7.5L222.54-7.5 222.54-3.45 216.84 0 208.74 0 208.74-5.25 216.24-5.25 216.24-7.5ZM195.74-19.35L206.49-25.3 206.49-5.25 206.49 0 200.24-3.45 200.24-17.2 195.74-17.15 195.74-19.35ZM229.04 0.05L229.04-28.75 235.19-28.75 235.19-22 242.79-22 242.79-17.2 235.19-17.2 235.19 0.05 229.04 0.05ZM258.79 0.05L258.79-18.55 253.14-22 244.99-22 244.99-17.2 252.49-17.2 252.49 0.05 258.79 0.05Z" opacity="1" transform="matrix(1,0,0,1,0,0)" fill="#e31111" class="undefined-text-0" data-fill-palette-color="primary" id="text-0"></path></svg></g></svg></g></svg></g></svg></g><g></g></svg></g></svg></g></svg></g></svg></g><defs></defs></svg><rect width="320" height="360" fill="none" stroke="none" visibility="hidden"></rect></g></svg></g></svg>